<svg id="arabic_logo" data-name="arabic logo" xmlns="http://www.w3.org/2000/svg" xmlns:xlink="http://www.w3.org/1999/xlink" viewBox="0 0 1920 1080"><defs><style>.cls-1{fill:#1c487a;}.cls-2{fill:url(#linear-gradient);}.cls-3{fill:#d4a32f;}.cls-4{fill:#dadada;}</style><linearGradient id="linear-gradient" x1="584.55" y1="337.89" x2="660.9" y2="337.89" gradientUnits="userSpaceOnUse"><stop offset="0" stop-color="#d8b568"/><stop offset="1" stop-color="#fff"/></linearGradient></defs><path class="cls-1" d="M465.13,165.28c66.43,0,132.67-.89,198.85.71,14,.34,29.57,7.28,41.43,15.49,48.94,33.89,40.49,117-13.89,145.4-2.25,1.17-4.55,2.24-8.07,4l70.38,84.68c-31.06,0-60.26.1-89.46-.32-1.21,0-3.38-4.79-3.39-7.35-.2-58.84-.06-117.69-.5-176.53,0-2.69-4.86-7.64-7.52-7.67q-54.26-.77-108.54,0c-2.54,0-7.18,4.65-7.2,7.17-.41,58.6-.19,117.22-.69,175.82,0,2.93-5.4,8.21-8.44,8.33-19.08.74-38.21.52-57.31.07-2.26-.05-6.37-3.42-6.38-5.26q-.34-121.15,0-242.33A9.78,9.78,0,0,1,465.13,165.28Z"/><path class="cls-1" d="M725.73,340.83,857.54,223.4c-31,0-59.13-.37-87.26.22-8.31.17-10.25-2.9-13.75-10.16-8.36-17.35-19.59-33.32-28.82-48.47-2.53.14.07-.12,2.68-.12,69.32,0,138.64-.13,208,.32,2.78,0,6.47,4.77,8,8.12,1.35,2.95-.37,7.14.35,10.55,7.15,34-9.56,55.71-34.67,76.29C877.3,288.62,845.28,320.42,809.7,353h11.48c39.25,0,78.5-.24,117.75.23,2.67,0,7.44,4.91,7.57,7.71.75,15.77.66,31.6.07,47.38-.08,2.37-4.29,6.58-6.61,6.59-49.19.36-98.37.25-147.56.12-2.11,0-5-.42-6.22-1.81C766,389.34,746.1,365.3,725.73,340.83Z"/><polygon class="cls-2" points="660.74 281.27 584.55 298.45 584.55 394.51 660.9 372.64 660.74 281.27"/><rect class="cls-1" x="509.93" y="484.47" width="43.17" height="32.88" rx="2.51"/><path class="cls-1" d="M591.49,542.69H553.85a2.22,2.22,0,0,0-2.51,2.51v76.54q0,27.1-22.84,27.11a25.6,25.6,0,0,1-8.91-1.63,20.26,20.26,0,0,1-7.65-5,24.9,24.9,0,0,1-5.27-8.91,39.87,39.87,0,0,1-2-13.55,63.47,63.47,0,0,1,2.51-18.83,122.62,122.62,0,0,1,5.77-15,2.8,2.8,0,0,0,.25-2c-.17-.67-.75-1.17-1.75-1.51l-33.63-9q-3-.75-4,1a89,89,0,0,0-9.28,24.09,108.65,108.65,0,0,0-3,24.35q0,17.31,5.65,29.23A54.24,54.24,0,0,0,482,671.31,57.1,57.1,0,0,0,503.15,682,94.93,94.93,0,0,0,528,685.24a97.8,97.8,0,0,0,25-3.14,56.62,56.62,0,0,0,21.08-10.41,51,51,0,0,0,14.56-19.08Q594,640.82,594,623.75V545.2A2.22,2.22,0,0,0,591.49,542.69Z"/><rect class="cls-1" x="667.03" y="458.87" width="42.66" height="170.66" rx="2.51"/><rect class="cls-1" x="796.28" y="463.89" width="43.17" height="32.88" rx="2.51"/><path class="cls-1" d="M1257.77,522.11h-37.64a2.22,2.22,0,0,0-2.51,2.51v56q0,7.53-2.89,10.42t-9.16,2.89h-5.52c-.23,0-.44,0-.66,0s-.39,0-.59,0h-34.89a10.63,10.63,0,0,0-1.28.07,9.65,9.65,0,0,0-1.22-.07h-34.89a10.63,10.63,0,0,0-1.28.07,9.65,9.65,0,0,0-1.22-.07h-34.89a10.63,10.63,0,0,0-1.28.07,9.65,9.65,0,0,0-1.22-.07h-34.89a10.63,10.63,0,0,0-1.28.07,9.65,9.65,0,0,0-1.22-.07h-34.89a10.63,10.63,0,0,0-1.28.07,9.65,9.65,0,0,0-1.22-.07H977a10.63,10.63,0,0,0-1.28.07,9.65,9.65,0,0,0-1.22-.07H939.57a10.63,10.63,0,0,0-1.28.07,9.81,9.81,0,0,0-1.23-.07H902.18a10.63,10.63,0,0,0-1.28.07,9.81,9.81,0,0,0-1.23-.07H864.79c-.22,0-.43,0-.64,0s-.4,0-.61,0h-7q-8.28,0-12.8-3.39a10.4,10.4,0,0,1-4.52-8.66V524.62a2.22,2.22,0,0,0-2.51-2.51H799a2.22,2.22,0,0,0-2.51,2.51V619q0,13.31-3.39,20.08t-15.43,6.78h-5a2.21,2.21,0,0,0-2.51,2.51V679a2.22,2.22,0,0,0,2.51,2.51h13.8q27.85,0,40.28-13.8T839.19,624v-3.26a22,22,0,0,0,10,6.9,46.57,46.57,0,0,0,14.31,1.88c.18,0,.35,0,.53,0s.47,0,.72,0h34.88c.45,0,.87,0,1.29,0a12.07,12.07,0,0,0,1.22,0h34.88c.45,0,.88,0,1.29,0a12.07,12.07,0,0,0,1.22,0h34.89c.44,0,.87,0,1.28,0a12.07,12.07,0,0,0,1.22,0h34.89c.44,0,.87,0,1.28,0a12.07,12.07,0,0,0,1.22,0h34.89c.44,0,.87,0,1.28,0a12.07,12.07,0,0,0,1.22,0h34.89c.44,0,.87,0,1.28,0a12.07,12.07,0,0,0,1.22,0H1124c.44,0,.87,0,1.28,0a12.07,12.07,0,0,0,1.22,0h34.89c.44,0,.87,0,1.28,0a12.07,12.07,0,0,0,1.22,0h34.89c.24,0,.48,0,.71,0s.35,0,.54,0h30.87q15.81,0,22.58-7.65t6.78-24V524.62A2.22,2.22,0,0,0,1257.77,522.11Z"/><rect class="cls-1" x="1215.11" y="648.35" width="43.17" height="32.88" rx="2.51"/><path class="cls-1" d="M1387.27,522.11h-37.65a2.21,2.21,0,0,0-2.5,2.51V624.5q0,10.8-4.15,16.07t-14.68,5.27h-5a2.22,2.22,0,0,0-2.51,2.51V679a2.22,2.22,0,0,0,2.51,2.51h13.81q26.85,0,39.77-13.05t12.93-41.66V524.62A2.22,2.22,0,0,0,1387.27,522.11Z"/><path class="cls-3" d="M486.85,763.49H470.54a1,1,0,0,0-1.11,1.11V771a1,1,0,0,0,1.11,1.11h12.87q12.64,0,12.65,11.2v8.88a28.51,28.51,0,0,1-.33,4.77,6.25,6.25,0,0,1-1.33,3,5.6,5.6,0,0,1-2.89,1.67,20.3,20.3,0,0,1-5,.5H465.33a1,1,0,0,0-1.11,1.11v6.43a1,1,0,0,0,1.11,1.11H490a25.31,25.31,0,0,0,7.21-.89,10.5,10.5,0,0,0,4.94-3.05,13.71,13.71,0,0,0,2.88-5.82,37.65,37.65,0,0,0,.94-9.21v-8.66q0-10.2-5.32-15T486.85,763.49Z"/><rect class="cls-3" x="522.13" y="735.42" width="9.32" height="75.45" rx="1.11"/><rect class="cls-3" x="605.9" y="821.19" width="9.76" height="10.32" rx="1.11"/><rect class="cls-3" x="592.36" y="821.19" width="9.76" height="10.32" rx="1.11"/><rect class="cls-3" x="653.61" y="744.19" width="9.76" height="10.32" rx="1.11"/><rect class="cls-3" x="640.07" y="744.19" width="9.76" height="10.32" rx="1.11"/><path class="cls-3" d="M795.4,765.49h-7.1a1,1,0,0,0-1.11,1.11v29.73c0,2.22-.42,3.76-1.27,4.61a5.57,5.57,0,0,1-4,1.28h-2.78a12,12,0,0,1-7.1-1.89,6.49,6.49,0,0,1-2.66-5.66V776.14a1,1,0,0,0-1.11-1.11h-7.1a1,1,0,0,0-1.11,1.11v20.19c0,2.22-.43,3.76-1.28,4.61a5.54,5.54,0,0,1-4.05,1.28h-2.77a12,12,0,0,1-7.1-1.89,6.46,6.46,0,0,1-2.66-5.66V776.14A1,1,0,0,0,741,775h-7.11a1,1,0,0,0-1.1,1.11v20.19c0,2.22-.43,3.76-1.28,4.61a5.54,5.54,0,0,1-4,1.28H666.59a12.52,12.52,0,0,1-7.27-1.89,6.44,6.44,0,0,1-2.72-5.66V766.6a1,1,0,0,0-1.1-1.11h-7.11a1,1,0,0,0-1.11,1.11v29.73c0,2.22-.42,3.76-1.27,4.61a5.54,5.54,0,0,1-4,1.28h-7.55l-.37,0-.4,0H620a12.54,12.54,0,0,1-7.27-1.89,6.43,6.43,0,0,1-2.71-5.66V766.6a1,1,0,0,0-1.11-1.11h-7.1a1,1,0,0,0-1.11,1.11v29.73c0,2.22-.43,3.76-1.28,4.61a5.54,5.54,0,0,1-4,1.28h-7.54l-.38,0-.4,0H573.5a12.49,12.49,0,0,1-7.26-1.89,6.41,6.41,0,0,1-2.72-5.66V766.6a1,1,0,0,0-1.11-1.11h-7.1a1,1,0,0,0-1.11,1.11v48.26q0,9.43-9,9.44h-2.55a1,1,0,0,0-1.11,1.11v6.43a1,1,0,0,0,1.11,1.11h3q8.76,0,13.31-4.66t4.55-13.65v-7.32q3.11,3.55,8.87,3.55H587l.37,0,.41,0H597q8.78,0,11.54-5.77a9.64,9.64,0,0,0,4.11,4.33,12.83,12.83,0,0,0,6.21,1.44h14.76l.37,0,.4,0h9.21q8.77,0,11.54-5.77a9.64,9.64,0,0,0,4.11,4.33,12.83,12.83,0,0,0,6.21,1.44h63.68q8.77,0,11.54-5.77a9.64,9.64,0,0,0,4.11,4.33,12.83,12.83,0,0,0,6.21,1.44h5.33q8.76,0,11.54-5.77a9.68,9.68,0,0,0,4.1,4.33,12.88,12.88,0,0,0,6.21,1.44h5.33q7,0,10-3.38t3-10.6V766.6A1,1,0,0,0,795.4,765.49Z"/><path class="cls-3" d="M869.3,735.42h-7.1a1,1,0,0,0-1.11,1.11v59.8c0,2.22-.43,3.76-1.28,4.61a5.54,5.54,0,0,1-4,1.28h-13v-50a1,1,0,0,0-1.11-1.11h-7.1a1,1,0,0,0-1.11,1.11v50H811.6a1,1,0,0,0-1.11,1.11v6.43a1,1,0,0,0,1.11,1.11h45.82q7,0,10-3.38t3-10.6V736.53A1,1,0,0,0,869.3,735.42Z"/><rect class="cls-3" x="888.27" y="735.42" width="9.32" height="75.45" rx="1.11"/><path class="cls-3" d="M991,763.49a22.94,22.94,0,0,0-8.33,1.5,18.8,18.8,0,0,0-6.82,4.55,21.16,21.16,0,0,0-4.6,7.77,33.12,33.12,0,0,0-1.67,11A34.11,34.11,0,0,0,971,799a15.65,15.65,0,0,0,10.93,10.71,31.35,31.35,0,0,0,8.82,1.16h11.88v2.88a14.64,14.64,0,0,1-.78,5.16,7.62,7.62,0,0,1-2.16,3.22,8.43,8.43,0,0,1-3.28,1.67,16.1,16.1,0,0,1-4.1.5H979a1,1,0,0,0-1.11,1.11v6.43A1,1,0,0,0,979,833h13.76a26.32,26.32,0,0,0,7.88-1.11,14.86,14.86,0,0,0,9.93-9.43,25.24,25.24,0,0,0,1.39-8.88V787.68q0-12.75-5.55-18.47T991,763.49Zm11.65,38.73H991.4q-6.21,0-9.38-3t-3.16-10.87q0-7.33,3.22-11.76a10.35,10.35,0,0,1,8.88-4.44q6.21,0,8.93,4.1t2.72,11.43Z"/><rect class="cls-3" x="1105.29" y="744.19" width="9.76" height="10.32" rx="1.11"/><rect class="cls-3" x="1091.76" y="744.19" width="9.76" height="10.32" rx="1.11"/><path class="cls-3" d="M1103.41,763.49q-9.89,0-15.54,5.72t-5.66,18.47q0,12.65,5.66,18.31t15.54,5.66a26.58,26.58,0,0,0,8.82-1.39,16.51,16.51,0,0,0,6.65-4.27,19.46,19.46,0,0,0,4.22-7.44,34.84,34.84,0,0,0,1.5-10.87q0-12.75-5.66-18.47T1103.41,763.49Zm9,35.84q-2.84,3.66-9,3.66t-9.05-3.66q-2.82-3.66-2.83-11.65,0-7.32,2.83-11.43t9.05-4.1q6.21,0,9,4.1t2.83,11.43Q1115.28,795.68,1112.45,799.33Z"/><path class="cls-3" d="M1153.89,765.49h-7.1a1,1,0,0,0-1.11,1.11v48.26q0,9.43-9,9.44h-2.55a1,1,0,0,0-1.11,1.11v6.43a1,1,0,0,0,1.11,1.11h3q8.77,0,13.32-4.66t4.55-13.65v-48A1,1,0,0,0,1153.89,765.49Z"/><rect class="cls-3" x="1288.47" y="820.97" width="9.76" height="10.32" rx="1.11"/><rect class="cls-3" x="1372.34" y="744.19" width="9.76" height="10.32" rx="1.11"/><rect class="cls-3" x="1358.81" y="744.19" width="9.76" height="10.32" rx="1.11"/><path class="cls-3" d="M1464.65,735.42h-7.1a1,1,0,0,0-1.11,1.11v59.8c0,2.22-.42,3.76-1.27,4.61a5.57,5.57,0,0,1-4.05,1.28h-8.21a12.5,12.5,0,0,1-7.27-1.89,6.44,6.44,0,0,1-2.72-5.66V736.53a1,1,0,0,0-1.11-1.11h-7.1a1,1,0,0,0-1.11,1.11v59.8c0,2.22-.43,3.76-1.27,4.61a5.57,5.57,0,0,1-4,1.28h-33a12.5,12.5,0,0,1-7.27-1.89,6.41,6.41,0,0,1-2.72-5.66V766.6a1,1,0,0,0-1.11-1.11h-7.1a1,1,0,0,0-1.11,1.11v29.73c0,2.22-.43,3.76-1.28,4.61a5.54,5.54,0,0,1-4,1.28h-7.54l-.37,0-.41,0h-25.85a13,13,0,0,1-7-1.72,6.19,6.19,0,0,1-2.94-5.16c0-.59,0-1.19,0-1.78s.06-1.22.06-1.89a49.54,49.54,0,0,0-1.11-10.54,23.5,23.5,0,0,0-3.94-9,20.43,20.43,0,0,0-7.71-6.27c-3.26-1.59-7.43-2.39-12.54-2.39a22.94,22.94,0,0,0-11.26,2.55,25.79,25.79,0,0,0-7.71,6.44c-.45.52-.34,1,.33,1.55l4.88,4a1,1,0,0,0,1.56-.11,18.67,18.67,0,0,1,5.6-4.22,15.59,15.59,0,0,1,6.93-1.55,16.72,16.72,0,0,1,7.22,1.38,11.3,11.3,0,0,1,4.6,4,18.1,18.1,0,0,1,2.5,6.21,38.3,38.3,0,0,1,.77,7.93,32.45,32.45,0,0,1-.33,5.05,6.88,6.88,0,0,1-1.33,3.28,5.46,5.46,0,0,1-2.89,1.72,20.24,20.24,0,0,1-5,.5H1187a5.54,5.54,0,0,1-4-1.28c-.85-.85-1.28-2.39-1.28-4.61v-59.8a1,1,0,0,0-1.1-1.11h-7.11a1,1,0,0,0-1.11,1.11v60.36q0,7.22,3,10.6t10,3.38h115.38a21.8,21.8,0,0,0,8.49-1.44,10.63,10.63,0,0,0,5.27-5,8.84,8.84,0,0,0,4.22,4.83,14.07,14.07,0,0,0,6.76,1.61h27l.37,0,.41,0h9.21q8.76,0,11.54-5.77a9.68,9.68,0,0,0,4.1,4.33,12.9,12.9,0,0,0,6.22,1.44h35.72q8.76,0,11.54-5.77a9.68,9.68,0,0,0,4.1,4.33,12.9,12.9,0,0,0,6.22,1.44h11q7,0,10-3.38t3-10.6V736.53A1,1,0,0,0,1464.65,735.42Z"/><rect class="cls-4" x="464.27" y="713.23" width="1006.62" height="6.69"/><rect class="cls-1" x="1005.89" y="300.53" width="18.41" height="18.76" rx="1.77"/><rect class="cls-1" x="1028.9" y="300.53" width="18.41" height="18.76" rx="1.77"/><path class="cls-1" d="M1145.36,349.3a34,34,0,0,0-13.27-4.61,137.28,137.28,0,0,0-17.17-1.32l29.2-34.16a1.81,1.81,0,0,0-.7-2.48l-11.51-9.56a1.69,1.69,0,0,0-2.3.53l-38.23,45a23.72,23.72,0,0,1-1.77,1.95,3.18,3.18,0,0,0-1.06,2.3v12.21a1.56,1.56,0,0,0,1.77,1.77h28.49q9.39,0,13.72,3.8t4.34,11.78V386a42.76,42.76,0,0,1-.44,6.73,8,8,0,0,1-2,4.25,8.7,8.7,0,0,1-4.34,2.3,32.69,32.69,0,0,1-7.61.71h-43.89c-.41,0-.79,0-1.16,0s-.63,0-1,0h-6.72c-3,0-5.11-.68-6.46-2s-2-3.8-2-7.35V333.28a1.56,1.56,0,0,0-1.77-1.77h-16.28a1.56,1.56,0,0,0-1.77,1.77v7.61h-17.7a46.77,46.77,0,0,0-12.92,1.77,28.3,28.3,0,0,0-18.85,17q-2.93,6.9-2.92,17.17A38.76,38.76,0,0,0,991.73,392a27.77,27.77,0,0,0,17.79,16.37,42.53,42.53,0,0,0,13,1.95,36.32,36.32,0,0,0,10.8-1.59,24.69,24.69,0,0,0,8.85-4.78q1.59,7.61,6.46,10.62t13.54,3h14.33c.4,0,.77,0,1.13,0s.65,0,1,0h52a42.6,42.6,0,0,0,11.69-1.42,17,17,0,0,0,8.14-4.95,22.85,22.85,0,0,0,4.78-9.3,56,56,0,0,0,1.59-14.6V376.64q0-10.78-3-17.34A22.57,22.57,0,0,0,1145.36,349.3Zm-103.89,24.33q0,9.39-4.07,14.25c-2.72,3.25-6.9,4.87-12.57,4.87q-7.42,0-11.68-3.9t-4.25-12q0-10.44,4.6-14.34t12.22-3.89h15.75Z"/><rect class="cls-1" x="1359.35" y="284.78" width="18.41" height="18.76" rx="1.77"/><rect class="cls-1" x="1371.03" y="307.61" width="18.41" height="18.76" rx="1.77"/><rect class="cls-1" x="1348.02" y="307.61" width="18.41" height="18.76" rx="1.77"/><path class="cls-1" d="M1421.65,344.07h-16.46a1.57,1.57,0,0,0-1.77,1.77v36.82q0,5.67-.35,9a12.5,12.5,0,0,1-1.51,5.22,5.7,5.7,0,0,1-3.63,2.48,29,29,0,0,1-6.72.62q-5.67,0-9-2.75t-3.36-8.41v-29a1.57,1.57,0,0,0-1.77-1.77h-16.46a1.56,1.56,0,0,0-1.77,1.77v26.72a45.7,45.7,0,0,1-.45,7.26,7.06,7.06,0,0,1-1.77,4,6.7,6.7,0,0,1-3.62,1.77,33.8,33.8,0,0,1-6.2.45Q1334,400,1334,389v-29.2a1.56,1.56,0,0,0-1.77-1.77h-16.46a1.56,1.56,0,0,0-1.77,1.77v26.72c0,5.08-.48,8.59-1.42,10.54s-3.25,2.92-6.9,2.92h-80.89q-6.72,0-10.71-2.84a9.38,9.38,0,0,1-4-8.14V345.84a1.57,1.57,0,0,0-1.77-1.77h-16.46a1.57,1.57,0,0,0-1.77,1.77V409q0,6.38-.26,11.24a27.32,27.32,0,0,1-1.6,8.32,10.25,10.25,0,0,1-4.16,5.22c-1.88,1.18-4.54,1.77-8,1.77h-3.89a1.56,1.56,0,0,0-1.77,1.77v14.16a1.56,1.56,0,0,0,1.77,1.77h6.54a40.53,40.53,0,0,0,14.87-2.39,22,22,0,0,0,9.65-7.17,30.27,30.27,0,0,0,5.22-11.94,78,78,0,0,0,1.59-16.73v-3.36a13.38,13.38,0,0,0,7.35,4.78,44.42,44.42,0,0,0,10.35,1.06h83.9q8.13,0,12.83-2.13a14.59,14.59,0,0,0,7.17-7.25q4.59,9.38,17.16,9.38h7.79q8,0,12.66-2a14.15,14.15,0,0,0,7.17-7.17,16,16,0,0,0,6.63,6.82,21.56,21.56,0,0,0,10.53,2.39h7.61q12,0,17.09-5t5-17.25V345.84A1.57,1.57,0,0,0,1421.65,344.07Z"/></svg>